<?xml version="1.0" encoding="UTF-8" standalone="no"?>
<!-- Created with Inkscape (http://www.inkscape.org/) -->

<svg
   xmlns:dc="http://purl.org/dc/elements/1.1/"
   xmlns:cc="http://creativecommons.org/ns#"
   xmlns:rdf="http://www.w3.org/1999/02/22-rdf-syntax-ns#"
   xmlns:svg="http://www.w3.org/2000/svg"
   xmlns="http://www.w3.org/2000/svg"
   version="1.2"
   width="80"
   height="80"
   id="svg6098">
  <defs
     id="defs6100">
    <style
       type="text/css"
       id="style3178" />
    <style
       type="text/css"
       id="style3178-5" />
  </defs>
  <metadata
     id="metadata6103">
    <rdf:RDF>
      <cc:Work
         rdf:about="">
        <dc:title></dc:title>
        <dc:format>image/svg+xml</dc:format>
        <dc:type
           rdf:resource="http://purl.org/dc/dcmitype/StillImage" />
      </cc:Work>
    </rdf:RDF>
  </metadata>
  <g
     id="text5861"
     style="font-size:38.27757263px;font-style:normal;font-variant:normal;font-weight:normal;font-stretch:normal;text-align:start;line-height:125%;letter-spacing:0px;word-spacing:0px;writing-mode:lr-tb;text-anchor:start;fill:#0e232e;fill-opacity:1;stroke:none;font-family:Sans;-inkscape-font-specification:Sans" />
  <use
     transform="matrix(2.8971124,0,0,-2.8971124,5029.1758,-9945.8305)"
     id="use44"
     x="-50.393002"
     y="-23.148001"
     width="100.786"
     height="46.297001" />
  <g
     id="text6811"
     style="font-size:12px;font-style:normal;font-variant:normal;font-weight:normal;font-stretch:normal;line-height:125%;letter-spacing:0px;word-spacing:0px;fill:#000000;fill-opacity:1;stroke:none;font-family:Sans;-inkscape-font-specification:Helvetica" />
  <g
     transform="translate(5952.0068,-8624.3369)"
     id="flowRoot3834"
     style="font-size:24px;font-style:normal;font-variant:normal;font-weight:normal;font-stretch:normal;text-align:center;line-height:125%;letter-spacing:0px;word-spacing:0px;text-anchor:middle;fill:#000000;fill-opacity:1;stroke:none;font-family:Palatino;-inkscape-font-specification:Palatino" />
  <g
     transform="translate(5952.0068,-8624.3369)"
     id="flowRoot3850"
     style="font-size:24px;font-style:normal;font-variant:normal;font-weight:normal;font-stretch:normal;text-align:center;line-height:125%;letter-spacing:0px;word-spacing:0px;text-anchor:middle;fill:#000000;fill-opacity:1;stroke:none;font-family:Palatino;-inkscape-font-specification:Palatino" />
  <g
     id="text3127"
     style="font-size:18px;font-style:normal;font-variant:normal;font-weight:normal;font-stretch:normal;text-align:center;line-height:125%;letter-spacing:0px;word-spacing:0px;text-anchor:middle;fill:#000000;fill-opacity:1;stroke:none;font-family:Arial;-inkscape-font-specification:Arial" />
  <g
     id="text3431"
     style="font-size:18px;font-style:normal;font-variant:normal;font-weight:normal;font-stretch:normal;text-align:center;line-height:125%;letter-spacing:0px;word-spacing:0px;text-anchor:middle;fill:#000000;fill-opacity:1;stroke:none;font-family:Arial;-inkscape-font-specification:Arial" />
  <g
     transform="matrix(1.1195492,0,0,1.1195492,6475.1457,-8298.6807)"
     id="flowRoot3435"
     style="font-size:24px;font-style:normal;font-variant:normal;font-weight:normal;font-stretch:normal;text-align:start;line-height:125%;letter-spacing:0px;word-spacing:0px;text-anchor:start;fill:#cccccc;fill-opacity:1;stroke:none;font-family:Palatino;-inkscape-font-specification:Palatino" />
  <g
     id="text3561"
     style="font-size:18px;font-style:normal;font-variant:normal;font-weight:normal;font-stretch:normal;text-align:center;line-height:125%;letter-spacing:0px;word-spacing:0px;text-anchor:middle;fill:#000000;fill-opacity:1;stroke:none;font-family:Arial;-inkscape-font-specification:Arial" />
  <path
     d="m 23.4375,6.15625 c -2.4073,0.04 -4.84815,0.765 -6.96875,2.25 -5.2341,3.6649 -6.77905,10.6267 -3.84375,16.125 4.5531,-7.1187 11.77405,-12.358 20.28125,-14.25 -2.4751,-2.7454 -5.94365,-4.184 -9.46875,-4.125 z m 33.125,0 c -3.525,-0.059 -6.99375,1.3796 -9.46875,4.125 8.5072,1.892 15.72815,7.1313 20.28125,14.25 2.9353,-5.4983 1.39025,-12.4601 -3.84375,-16.125 -2.1207,-1.485 -4.56145,-2.2098 -6.96875,-2.25 z M 40,12 C 32.113449,12 24.357354,15.204086 18.78125,20.78125 13.205146,26.358414 9.9984961,34.113447 10,42 10.0015,49.884624 13.205446,57.644013 18.78125,63.21875 24.357054,68.793487 32.115378,72 40,72 47.884622,72 55.642946,68.793487 61.21875,63.21875 66.794554,57.644013 69.998496,49.884624 70,42 70.001504,34.113447 66.794854,26.358414 61.21875,20.78125 55.642646,15.204086 47.886551,12 40,12 z m 0,5 c 6.514164,0 13.081731,2.705856 17.6875,7.3125 C 62.293269,28.919144 65.001242,35.485838 65,42 64.998758,48.512595 62.293039,55.082842 57.6875,59.6875 53.081961,64.292158 46.512597,67 40,67 33.487403,67 26.918039,64.292158 22.3125,59.6875 17.706961,55.082842 15.001242,48.512595 15,42 14.998758,35.485838 17.706731,28.919144 22.3125,24.3125 26.918269,19.705856 33.485836,17 40,17 z m -0.03125,2.4375 a 2.50025,2.50025 0 0 0 -0.25,0.03125 A 2.50025,2.50025 0 0 0 37.5,22 l 0,18.5625 -11.75,6.78125 a 2.50025,2.50025 0 1 0 2.5,4.3125 l 12.53125,-7.25 a 2.50025,2.50025 0 0 0 0.125,-0.0625 L 41,44.3125 a 2.50025,2.50025 0 0 0 0.4375,-0.25 2.50025,2.50025 0 0 0 0.03125,-0.03125 2.50025,2.50025 0 0 0 0.1875,-0.15625 2.50025,2.50025 0 0 0 0.15625,-0.125 2.50025,2.50025 0 0 0 0.03125,-0.0625 2.50025,2.50025 0 0 0 0.125,-0.125 A 2.50025,2.50025 0 0 0 42,43.5 2.50025,2.50025 0 0 0 42.09375,43.375 2.50025,2.50025 0 0 0 42.15625,43.3125 2.50025,2.50025 0 0 0 42.25,43.125 2.50025,2.50025 0 0 0 42.28125,43.09375 2.50025,2.50025 0 0 0 42.34375,42.90625 2.50025,2.50025 0 0 0 42.5,41.5 l 0,-19.5 a 2.50025,2.50025 0 0 0 -2.53125,-2.5625 z"
     id="path3285"
     style="font-size:medium;font-style:normal;font-variant:normal;font-weight:normal;font-stretch:normal;text-indent:0;text-align:start;text-decoration:none;line-height:normal;letter-spacing:normal;word-spacing:normal;text-transform:none;direction:ltr;block-progression:tb;writing-mode:lr-tb;text-anchor:start;baseline-shift:baseline;color:#000000;fill:#cccccc;fill-opacity:1;fill-rule:nonzero;stroke:none;stroke-width:5;marker:none;visibility:visible;display:inline;overflow:visible;enable-background:accumulate;font-family:Sans;-inkscape-font-specification:Sans" />
  <g
     transform="translate(5952.0068,-8624.3369)"
     id="flowRoot4563"
     style="font-size:4px;font-style:normal;font-variant:normal;font-weight:bold;font-stretch:normal;line-height:125%;letter-spacing:0px;word-spacing:0px;fill:#000000;fill-opacity:1;stroke:none;font-family:Arial;-inkscape-font-specification:Sans Bold" />
</svg>
