<?xml version="1.0" encoding="UTF-8" standalone="no"?>
<!-- Created with Inkscape (http://www.inkscape.org/) -->

<svg
   xmlns:dc="http://purl.org/dc/elements/1.1/"
   xmlns:cc="http://creativecommons.org/ns#"
   xmlns:rdf="http://www.w3.org/1999/02/22-rdf-syntax-ns#"
   xmlns:svg="http://www.w3.org/2000/svg"
   xmlns="http://www.w3.org/2000/svg"
   version="1.2"
   width="80"
   height="80"
   id="svg6098">
  <defs
     id="defs6100">
    <style
       type="text/css"
       id="style3178" />
    <style
       type="text/css"
       id="style3178-5" />
  </defs>
  <metadata
     id="metadata6103">
    <rdf:RDF>
      <cc:Work
         rdf:about="">
        <dc:title></dc:title>
        <dc:format>image/svg+xml</dc:format>
        <dc:type
           rdf:resource="http://purl.org/dc/dcmitype/StillImage" />
      </cc:Work>
    </rdf:RDF>
  </metadata>
  <text
     x="5217.0835"
     y="-8889.7832"
     id="text5861"
     xml:space="preserve"
     style="font-size:38.27757263px;font-style:normal;font-variant:normal;font-weight:normal;font-stretch:normal;text-align:start;line-height:125%;letter-spacing:0px;word-spacing:0px;writing-mode:lr-tb;text-anchor:start;fill:#cccccc;fill-opacity:1;stroke:none;font-family:Sans;-inkscape-font-specification:Sans"><tspan
       x="5217.0835"
       y="-8889.7832"
       id="tspan5863"
       style="fill:#cccccc" /></text>
  <use
     transform="matrix(2.8971124,0,0,-2.8971124,4765.1758,-10033.831)"
     id="use44"
     style="fill:#cccccc"
     x="-50.393002"
     y="-23.148001"
     width="100.786"
     height="46.297001" />
  <text
     x="5586.1035"
     y="-8514.2607"
     id="text6811"
     xml:space="preserve"
     style="font-size:12px;font-style:normal;font-variant:normal;font-weight:normal;font-stretch:normal;line-height:125%;letter-spacing:0px;word-spacing:0px;fill:#cccccc;fill-opacity:1;stroke:none;font-family:Sans;-inkscape-font-specification:Helvetica"><tspan
       x="5586.1035"
       y="-8514.2607"
       id="tspan6813"
       style="font-size:72px;fill:#cccccc" /></text>
  <flowRoot
     transform="translate(5688.0068,-8712.3369)"
     id="flowRoot3834"
     xml:space="preserve"
     style="font-size:24px;font-style:normal;font-variant:normal;font-weight:normal;font-stretch:normal;text-align:center;line-height:125%;letter-spacing:0px;word-spacing:0px;text-anchor:middle;fill:#cccccc;fill-opacity:1;stroke:none;font-family:Palatino;-inkscape-font-specification:Palatino"><flowRegion
       id="flowRegion3836"><rect
         width="396.14722"
         height="238.57195"
         x="-5753.707"
         y="8757.2402"
         id="rect3838"
         style="font-size:24px;fill:#cccccc" /></flowRegion><flowPara
       id="flowPara3840" /></flowRoot>  <flowRoot
     transform="translate(5688.0068,-8712.3369)"
     id="flowRoot3850"
     xml:space="preserve"
     style="font-size:24px;font-style:normal;font-variant:normal;font-weight:normal;font-stretch:normal;text-align:center;line-height:125%;letter-spacing:0px;word-spacing:0px;text-anchor:middle;fill:#cccccc;fill-opacity:1;stroke:none;font-family:Palatino;-inkscape-font-specification:Palatino"><flowRegion
       id="flowRegion3852"><rect
         width="58.906651"
         height="29.453325"
         x="-5681.5464"
         y="8716.0049"
         id="rect3854"
         style="fill:#cccccc" /></flowRegion><flowPara
       id="flowPara3856" /></flowRoot>  <text
     x="-32.387726"
     y="1391.2245"
     id="text3127"
     xml:space="preserve"
     style="font-size:18px;font-style:normal;font-variant:normal;font-weight:normal;font-stretch:normal;text-align:center;line-height:125%;letter-spacing:0px;word-spacing:0px;text-anchor:middle;fill:#cccccc;fill-opacity:1;stroke:none;font-family:Arial;-inkscape-font-specification:Arial"><tspan
       x="-32.387726"
       y="1391.2245"
       id="tspan3129"
       style="fill:#cccccc" /><tspan
       x="-32.387726"
       y="1413.7245"
       id="tspan3131"
       style="fill:#cccccc" /></text>
  <text
     x="-216.2355"
     y="1255.46"
     id="text3431"
     xml:space="preserve"
     style="font-size:18px;font-style:normal;font-variant:normal;font-weight:normal;font-stretch:normal;text-align:center;line-height:125%;letter-spacing:0px;word-spacing:0px;text-anchor:middle;fill:#cccccc;fill-opacity:1;stroke:none;font-family:Arial;-inkscape-font-specification:Arial"><tspan
       x="-216.2355"
       y="1255.46"
       id="tspan3433"
       style="fill:#cccccc" /></text>
  <flowRoot
     transform="matrix(1.1195492,0,0,1.1195492,6211.1457,-8386.6807)"
     id="flowRoot3435"
     xml:space="preserve"
     style="font-size:24px;font-style:normal;font-variant:normal;font-weight:normal;font-stretch:normal;text-align:start;line-height:125%;letter-spacing:0px;word-spacing:0px;text-anchor:start;fill:#cccccc;fill-opacity:1;stroke:none;font-family:Palatino;-inkscape-font-specification:Palatino"><flowRegion
       id="flowRegion3437"><rect
         width="325.23413"
         height="45.302246"
         x="-5746.3438"
         y="8746.9316"
         id="rect3439"
         style="text-align:start;text-anchor:start;fill:#cccccc;fill-opacity:1" /></flowRegion><flowPara
       id="flowPara3441"
       style="font-size:16.07789993px;font-weight:bold;fill:#cccccc;fill-opacity:1;font-family:Play;-inkscape-font-specification:Play" /><flowPara
       id="flowPara3443"
       style="font-size:17.86433411px;font-weight:bold;fill:#cccccc;fill-opacity:1;font-family:Play;-inkscape-font-specification:Play" /><flowPara
       id="flowPara3445"
       style="font-size:17.86433411px;font-weight:bold;fill:#cccccc;fill-opacity:1;font-family:Play;-inkscape-font-specification:Play" /><flowPara
       id="flowPara3447"
       style="font-size:16.07789993px;font-weight:bold;fill:#cccccc;fill-opacity:1;font-family:Play;-inkscape-font-specification:Play" /><flowPara
       id="flowPara3449"
       style="font-size:16.07789993px;font-weight:bold;fill:#cccccc;fill-opacity:1;font-family:Play;-inkscape-font-specification:Play" /><flowPara
       id="flowPara3451"
       style="font-size:17.86433411px;font-weight:bold;fill:#cccccc;fill-opacity:1;font-family:Play;-inkscape-font-specification:Play" /><flowPara
       id="flowPara3453"
       style="font-size:21.43720245px;font-weight:bold;fill:#cccccc;fill-opacity:1;font-family:Play;-inkscape-font-specification:Play" /><flowPara
       id="flowPara3455"
       style="font-size:21.43720245px;font-weight:bold;fill:#cccccc;fill-opacity:1;font-family:Play;-inkscape-font-specification:Play" /><flowPara
       id="flowPara3457"
       style="font-size:17.86433411px;font-weight:bold;fill:#cccccc;fill-opacity:1;font-family:Play;-inkscape-font-specification:Play" /><flowPara
       id="flowPara3459"
       style="font-size:17.86433411px;font-weight:bold;fill:#cccccc;fill-opacity:1;font-family:Play;-inkscape-font-specification:Play" /><flowPara
       id="flowPara3461"
       style="font-size:17.86433411px;font-weight:bold;fill:#cccccc;fill-opacity:1;font-family:Play;-inkscape-font-specification:Play" /><flowPara
       id="flowPara3463"
       style="font-size:17.86433411px;font-weight:bold;fill:#cccccc;fill-opacity:1;font-family:Play;-inkscape-font-specification:Play" /><flowPara
       id="flowPara3465"
       style="font-size:17.86433411px;font-weight:bold;fill:#cccccc;fill-opacity:1;font-family:Play;-inkscape-font-specification:Play" /><flowPara
       id="flowPara3467"
       style="font-size:17.86433411px;font-weight:bold;fill:#cccccc;fill-opacity:1;font-family:Play;-inkscape-font-specification:Play" /><flowPara
       id="flowPara3469"
       style="font-size:17.86433411px;font-weight:bold;fill:#cccccc;fill-opacity:1;font-family:Play;-inkscape-font-specification:Play" /><flowPara
       id="flowPara3471"
       style="font-size:17.86433411px;font-weight:bold;fill:#cccccc;fill-opacity:1;font-family:Play;-inkscape-font-specification:Play" /><flowPara
       id="flowPara3473"
       style="font-size:17.86433411px;font-weight:bold;fill:#cccccc;fill-opacity:1;font-family:Play;-inkscape-font-specification:Play" /><flowPara
       id="flowPara3475"
       style="font-size:17.86433411px;font-weight:bold;fill:#cccccc;fill-opacity:1;font-family:Play;-inkscape-font-specification:Play" /></flowRoot>  <text
     x="412"
     y="1258"
     id="text3561"
     xml:space="preserve"
     style="font-size:18px;font-style:normal;font-variant:normal;font-weight:normal;font-stretch:normal;text-align:center;line-height:125%;letter-spacing:0px;word-spacing:0px;text-anchor:middle;fill:#cccccc;fill-opacity:1;stroke:none;font-family:Arial;-inkscape-font-specification:Arial"><tspan
       x="412"
       y="1258"
       id="tspan3563"
       style="fill:#cccccc" /></text>
  <flowRoot
     transform="translate(5688.0068,-8712.3369)"
     id="flowRoot4563"
     xml:space="preserve"
     style="font-size:4px;font-style:normal;font-variant:normal;font-weight:bold;font-stretch:normal;line-height:125%;letter-spacing:0px;word-spacing:0px;fill:#cccccc;fill-opacity:1;stroke:none;font-family:Arial;-inkscape-font-specification:Sans Bold"><flowRegion
       id="flowRegion4565"><rect
         width="13.66171"
         height="5.2695165"
         x="373.74536"
         y="-429.5632"
         id="rect4567"
         style="fill:#cccccc" /></flowRegion><flowPara
       id="flowPara4569" /></flowRoot>  <path
     d="M 40,12.125 C 23.2466,12.125 9.875,25.6461 9.875,42 9.875,58.3539 23.2466,71.875 40,71.875 56.7533,71.875 70.125,58.3539 70.125,42 70.125,25.6461 56.7533,12.125 40,12.125 z m -1.28125,4.78125 c 0.092,-0.01 0.18865,0 0.28125,0 L 39,25 l 2,0 0,-8.09375 C 53.8505,17.41695 64.33835,27.7911 64.84375,41 L 50,41 l 0,2 14.84375,0 C 64.33835,56.2089 53.8505,66.58295 41,67.09375 L 41,59 l -2,0 0,8.09375 C 26.1495,66.58295 15.66145,56.2089 15.15625,43 L 35,43 35,41 15.15625,41 c 0.5016,-13.1137 10.8384,-23.44585 23.5625,-24.09375 z m 1,10.46875 c -1.5755,0 -3.00525,0.30735 -4.28125,0.90625 -1.263,0.586 -2.25255,1.3959 -2.96875,2.4375 -0.7031,1.0287 -1.2109,2.42455 -1.5625,4.15625 l 5.0625,0.84375 c 0.1432,-1.25 0.5235,-2.19275 1.1875,-2.84375 0.6641,-0.6511 1.46875,-0.96875 2.40625,-0.96875 0.9505,0 1.70835,0.27085 2.28125,0.84375 0.5729,0.5729 0.875,1.3489 0.875,2.3125 0,1.1328 -0.4062,2.02865 -1.1875,2.71875 -0.7812,0.6771 -1.8906,1.00775 -3.375,0.96875 l -0.625,4.46875 c 0.9766,-0.2734 1.82805,-0.40625 2.53125,-0.40625 1.0677,0 1.97655,0.41145 2.71875,1.21875 0.7422,0.8073 1.09375,1.90115 1.09375,3.28125 0,1.4584 -0.37505,2.60935 -1.15625,3.46875 -0.7682,0.8594 -1.71095,1.28125 -2.84375,1.28125 -1.0547,0 -1.97655,-0.3464 -2.71875,-1.0625 -0.7422,-0.7162 -1.17445,-1.7708 -1.34375,-3.125 L 30.5,48.53125 c 0.2735,2.4089 1.26305,4.3776 2.96875,5.875 1.7057,1.4844 3.8464,2.21875 6.4375,2.21875 2.7344,0 5.00775,-0.88545 6.84375,-2.65625 1.8359,-1.7708 2.75,-3.9244 2.75,-6.4375 0,-1.7317 -0.47915,-3.2135 -1.46875,-4.4375 -0.9766,-1.2239 -2.2969,-1.99215 -3.9375,-2.34375 2.7474,-1.4973 4.125,-3.51815 4.125,-6.03125 0,-1.7708 -0.6589,-3.3437 -2,-4.75 -1.6276,-1.7187 -3.8047,-2.59375 -6.5,-2.59375 z"
     id="path5132"
     style="font-size:40px;font-style:normal;font-variant:normal;font-weight:bold;font-stretch:normal;line-height:125%;letter-spacing:0px;word-spacing:0px;fill:#cccccc;fill-opacity:1;stroke:none;font-family:Arial;-inkscape-font-specification:Sans Bold" />
</svg>
