<?xml version="1.0" encoding="UTF-8" standalone="no"?>
<!-- Created with Inkscape (http://www.inkscape.org/) -->

<svg
   xmlns:dc="http://purl.org/dc/elements/1.1/"
   xmlns:cc="http://creativecommons.org/ns#"
   xmlns:rdf="http://www.w3.org/1999/02/22-rdf-syntax-ns#"
   xmlns:svg="http://www.w3.org/2000/svg"
   xmlns="http://www.w3.org/2000/svg"
   version="1.2"
   width="80"
   height="80"
   id="svg6098">
  <defs
     id="defs6100">
    <style
       type="text/css"
       id="style3178" />
    <style
       type="text/css"
       id="style3178-5" />
  </defs>
  <metadata
     id="metadata6103">
    <rdf:RDF>
      <cc:Work
         rdf:about="">
        <dc:title></dc:title>
        <dc:format>image/svg+xml</dc:format>
        <dc:type
           rdf:resource="http://purl.org/dc/dcmitype/StillImage" />
      </cc:Work>
    </rdf:RDF>
  </metadata>
  <g
     id="text5861"
     style="font-size:38.27757263px;font-style:normal;font-variant:normal;font-weight:normal;font-stretch:normal;text-align:start;line-height:125%;letter-spacing:0px;word-spacing:0px;writing-mode:lr-tb;text-anchor:start;fill:#0e232e;fill-opacity:1;stroke:none;font-family:Sans;-inkscape-font-specification:Sans" />
  <use
     transform="matrix(2.8971124,0,0,-2.8971124,4941.1758,-9945.8305)"
     id="use44"
     x="-50.393002"
     y="-23.148001"
     width="100.786"
     height="46.297001" />
  <g
     id="text6811"
     style="font-size:12px;font-style:normal;font-variant:normal;font-weight:normal;font-stretch:normal;line-height:125%;letter-spacing:0px;word-spacing:0px;fill:#000000;fill-opacity:1;stroke:none;font-family:Sans;-inkscape-font-specification:Helvetica" />
  <g
     transform="translate(5864.0068,-8624.3369)"
     id="flowRoot3834"
     style="font-size:24px;font-style:normal;font-variant:normal;font-weight:normal;font-stretch:normal;text-align:center;line-height:125%;letter-spacing:0px;word-spacing:0px;text-anchor:middle;fill:#000000;fill-opacity:1;stroke:none;font-family:Palatino;-inkscape-font-specification:Palatino" />
  <g
     transform="translate(5864.0068,-8624.3369)"
     id="flowRoot3850"
     style="font-size:24px;font-style:normal;font-variant:normal;font-weight:normal;font-stretch:normal;text-align:center;line-height:125%;letter-spacing:0px;word-spacing:0px;text-anchor:middle;fill:#000000;fill-opacity:1;stroke:none;font-family:Palatino;-inkscape-font-specification:Palatino" />
  <g
     id="text3127"
     style="font-size:18px;font-style:normal;font-variant:normal;font-weight:normal;font-stretch:normal;text-align:center;line-height:125%;letter-spacing:0px;word-spacing:0px;text-anchor:middle;fill:#000000;fill-opacity:1;stroke:none;font-family:Arial;-inkscape-font-specification:Arial" />
  <g
     id="text3431"
     style="font-size:18px;font-style:normal;font-variant:normal;font-weight:normal;font-stretch:normal;text-align:center;line-height:125%;letter-spacing:0px;word-spacing:0px;text-anchor:middle;fill:#000000;fill-opacity:1;stroke:none;font-family:Arial;-inkscape-font-specification:Arial" />
  <g
     transform="matrix(1.1195492,0,0,1.1195492,6387.1457,-8298.6807)"
     id="flowRoot3435"
     style="font-size:24px;font-style:normal;font-variant:normal;font-weight:normal;font-stretch:normal;text-align:start;line-height:125%;letter-spacing:0px;word-spacing:0px;text-anchor:start;fill:#cccccc;fill-opacity:1;stroke:none;font-family:Palatino;-inkscape-font-specification:Palatino" />
  <g
     id="text3561"
     style="font-size:18px;font-style:normal;font-variant:normal;font-weight:normal;font-stretch:normal;text-align:center;line-height:125%;letter-spacing:0px;word-spacing:0px;text-anchor:middle;fill:#000000;fill-opacity:1;stroke:none;font-family:Arial;-inkscape-font-specification:Arial" />
  <path
     d="m 40,4 c -3,0 -6,1 -6,3 l 0,5.625 C 30.25513,13.400166 26.664482,14.900471 23.46875,17 L 19.5,13 C 19.058062,12.558063 18.465915,12.391753 17.8125,12.4375 16.374988,12.538144 14.583462,13.666606 13.125,15.125 11.0037,17.2464 9.5858,20.0858 11,21.5 l 3.96875,3.96875 C 11.768513,30.345529 9.998882,36.137145 10,42 10.0015,49.884624 13.205446,57.644013 18.78125,63.21875 24.357054,68.793487 32.115378,72 40,72 47.884622,72 55.642946,68.793487 61.21875,63.21875 66.794554,57.644013 69.998496,49.884624 70,42 70.001504,34.113447 66.794854,26.358414 61.21875,20.78125 57.074416,16.636129 51.711307,13.807206 46,12.625 L 46,7 C 46,5 43,4 40,4 z m 0,13 c 6.514164,0 13.081731,2.705856 17.6875,7.3125 C 62.293269,28.919144 65.001242,35.485838 65,42 64.998758,48.512595 62.293039,55.082842 57.6875,59.6875 53.081961,64.292158 46.512597,67 40,67 33.487403,67 26.918039,64.292158 22.3125,59.6875 17.706961,55.082842 15.001242,48.512595 15,42 14.998758,35.485838 17.706731,28.919144 22.3125,24.3125 26.918269,19.705856 33.485836,17 40,17 z m -0.03125,2.4375 a 2.5002502,2.5002502 0 0 0 -0.25,0.03125 A 2.5002502,2.5002502 0 0 0 37.5,22 l 0,20 a 2.5002502,2.5002502 0 1 0 5,0 l 0,-20 a 2.5002502,2.5002502 0 0 0 -2.53125,-2.5625 z"
     id="path3297"
     style="font-size:medium;font-style:normal;font-variant:normal;font-weight:normal;font-stretch:normal;text-indent:0;text-align:start;text-decoration:none;line-height:normal;letter-spacing:normal;word-spacing:normal;text-transform:none;direction:ltr;block-progression:tb;writing-mode:lr-tb;text-anchor:start;baseline-shift:baseline;color:#000000;fill:#cccccc;fill-opacity:1;stroke:none;stroke-width:5;marker:none;visibility:visible;display:inline;overflow:visible;enable-background:accumulate;font-family:Sans;-inkscape-font-specification:Sans" />
  <g
     transform="translate(5864.0068,-8624.3369)"
     id="flowRoot4563"
     style="font-size:4px;font-style:normal;font-variant:normal;font-weight:bold;font-stretch:normal;line-height:125%;letter-spacing:0px;word-spacing:0px;fill:#000000;fill-opacity:1;stroke:none;font-family:Arial;-inkscape-font-specification:Sans Bold" />
</svg>
