<?xml version="1.0" encoding="UTF-8" standalone="no"?>
<!-- Created with Inkscape (http://www.inkscape.org/) -->

<svg
   xmlns:dc="http://purl.org/dc/elements/1.1/"
   xmlns:cc="http://creativecommons.org/ns#"
   xmlns:rdf="http://www.w3.org/1999/02/22-rdf-syntax-ns#"
   xmlns:svg="http://www.w3.org/2000/svg"
   xmlns="http://www.w3.org/2000/svg"
   version="1.2"
   width="80"
   height="80"
   id="svg6098">
  <defs
     id="defs6100">
    <style
       type="text/css"
       id="style3178" />
    <style
       type="text/css"
       id="style3178-5" />
  </defs>
  <metadata
     id="metadata6103">
    <rdf:RDF>
      <cc:Work
         rdf:about="">
        <dc:title></dc:title>
        <dc:format>image/svg+xml</dc:format>
        <dc:type
           rdf:resource="http://purl.org/dc/dcmitype/StillImage" />
      </cc:Work>
    </rdf:RDF>
  </metadata>
  <g
     transform="translate(5600.0068,-8712.3369)"
     id="layer1"
     style="fill:#cccccc">
    <text
       x="-470.92346"
       y="-177.44661"
       id="text5861"
       xml:space="preserve"
       style="font-size:38.27757263px;font-style:normal;font-variant:normal;font-weight:normal;font-stretch:normal;text-align:start;line-height:125%;letter-spacing:0px;word-spacing:0px;writing-mode:lr-tb;text-anchor:start;fill:#cccccc;fill-opacity:1;stroke:none;font-family:Sans;-inkscape-font-specification:Sans"><tspan
         x="-470.92346"
         y="-177.44661"
         id="tspan5863"
         style="fill:#cccccc" /></text>
    <use
       transform="matrix(2.8971124,0,0,-2.8971124,-922.83099,-1321.4936)"
       id="use44"
       style="fill:#cccccc"
       x="-50.393002"
       y="-23.148001"
       width="100.786"
       height="46.297001" />
    <text
       x="148.09669"
       y="-604.28625"
       transform="translate(-250,802.36221)"
       id="text6811"
       xml:space="preserve"
       style="font-size:12px;font-style:normal;font-variant:normal;font-weight:normal;font-stretch:normal;line-height:125%;letter-spacing:0px;word-spacing:0px;fill:#cccccc;fill-opacity:1;stroke:none;font-family:Sans;-inkscape-font-specification:Helvetica"><tspan
         x="148.09669"
         y="-604.28625"
         id="tspan6813"
         style="font-size:72px;fill:#cccccc" /></text>
    <flowRoot
       id="flowRoot3834"
       xml:space="preserve"
       style="font-size:24px;font-style:normal;font-variant:normal;font-weight:normal;font-stretch:normal;text-align:center;line-height:125%;letter-spacing:0px;word-spacing:0px;text-anchor:middle;fill:#cccccc;fill-opacity:1;stroke:none;font-family:Palatino;-inkscape-font-specification:Palatino"><flowRegion
         id="flowRegion3836"><rect
           width="396.14722"
           height="238.57195"
           x="-5753.707"
           y="8757.2402"
           id="rect3838"
           style="font-size:24px;fill:#cccccc" /></flowRegion><flowPara
         id="flowPara3840" /></flowRoot>    <flowRoot
       id="flowRoot3850"
       xml:space="preserve"
       style="font-size:24px;font-style:normal;font-variant:normal;font-weight:normal;font-stretch:normal;text-align:center;line-height:125%;letter-spacing:0px;word-spacing:0px;text-anchor:middle;fill:#cccccc;fill-opacity:1;stroke:none;font-family:Palatino;-inkscape-font-specification:Palatino"><flowRegion
         id="flowRegion3852"><rect
           width="58.906651"
           height="29.453325"
           x="-5681.5464"
           y="8716.0049"
           id="rect3854"
           style="fill:#cccccc" /></flowRegion><flowPara
         id="flowPara3856" /></flowRoot>    <text
       x="319.61227"
       y="1059.2245"
       transform="translate(-6040.0068,9044.3369)"
       id="text3127"
       xml:space="preserve"
       style="font-size:18px;font-style:normal;font-variant:normal;font-weight:normal;font-stretch:normal;text-align:center;line-height:125%;letter-spacing:0px;word-spacing:0px;text-anchor:middle;fill:#cccccc;fill-opacity:1;stroke:none;font-family:Arial;-inkscape-font-specification:Arial"><tspan
         x="319.61227"
         y="1059.2245"
         id="tspan3129"
         style="fill:#cccccc" /><tspan
         x="319.61227"
         y="1081.7245"
         id="tspan3131"
         style="fill:#cccccc" /></text>
    <text
       x="135.7645"
       y="923.46002"
       transform="translate(-6040.0068,9044.3369)"
       id="text3431"
       xml:space="preserve"
       style="font-size:18px;font-style:normal;font-variant:normal;font-weight:normal;font-stretch:normal;text-align:center;line-height:125%;letter-spacing:0px;word-spacing:0px;text-anchor:middle;fill:#cccccc;fill-opacity:1;stroke:none;font-family:Arial;-inkscape-font-specification:Arial"><tspan
         x="135.7645"
         y="923.46002"
         id="tspan3433"
         style="fill:#cccccc" /></text>
    <flowRoot
       transform="matrix(1.1195492,0,0,1.1195492,523.13888,325.65624)"
       id="flowRoot3435"
       xml:space="preserve"
       style="font-size:24px;font-style:normal;font-variant:normal;font-weight:normal;font-stretch:normal;text-align:start;line-height:125%;letter-spacing:0px;word-spacing:0px;text-anchor:start;fill:#cccccc;fill-opacity:1;stroke:none;font-family:Palatino;-inkscape-font-specification:Palatino"><flowRegion
         id="flowRegion3437"><rect
           width="325.23413"
           height="45.302246"
           x="-5746.3438"
           y="8746.9316"
           id="rect3439"
           style="text-align:start;text-anchor:start;fill:#cccccc;fill-opacity:1" /></flowRegion><flowPara
         id="flowPara3441"
         style="font-size:16.07789993px;font-weight:bold;fill:#cccccc;fill-opacity:1;font-family:Play;-inkscape-font-specification:Play" /><flowPara
         id="flowPara3443"
         style="font-size:17.86433411px;font-weight:bold;fill:#cccccc;fill-opacity:1;font-family:Play;-inkscape-font-specification:Play" /><flowPara
         id="flowPara3445"
         style="font-size:17.86433411px;font-weight:bold;fill:#cccccc;fill-opacity:1;font-family:Play;-inkscape-font-specification:Play" /><flowPara
         id="flowPara3447"
         style="font-size:16.07789993px;font-weight:bold;fill:#cccccc;fill-opacity:1;font-family:Play;-inkscape-font-specification:Play" /><flowPara
         id="flowPara3449"
         style="font-size:16.07789993px;font-weight:bold;fill:#cccccc;fill-opacity:1;font-family:Play;-inkscape-font-specification:Play" /><flowPara
         id="flowPara3451"
         style="font-size:17.86433411px;font-weight:bold;fill:#cccccc;fill-opacity:1;font-family:Play;-inkscape-font-specification:Play" /><flowPara
         id="flowPara3453"
         style="font-size:21.43720245px;font-weight:bold;fill:#cccccc;fill-opacity:1;font-family:Play;-inkscape-font-specification:Play" /><flowPara
         id="flowPara3455"
         style="font-size:21.43720245px;font-weight:bold;fill:#cccccc;fill-opacity:1;font-family:Play;-inkscape-font-specification:Play" /><flowPara
         id="flowPara3457"
         style="font-size:17.86433411px;font-weight:bold;fill:#cccccc;fill-opacity:1;font-family:Play;-inkscape-font-specification:Play" /><flowPara
         id="flowPara3459"
         style="font-size:17.86433411px;font-weight:bold;fill:#cccccc;fill-opacity:1;font-family:Play;-inkscape-font-specification:Play" /><flowPara
         id="flowPara3461"
         style="font-size:17.86433411px;font-weight:bold;fill:#cccccc;fill-opacity:1;font-family:Play;-inkscape-font-specification:Play" /><flowPara
         id="flowPara3463"
         style="font-size:17.86433411px;font-weight:bold;fill:#cccccc;fill-opacity:1;font-family:Play;-inkscape-font-specification:Play" /><flowPara
         id="flowPara3465"
         style="font-size:17.86433411px;font-weight:bold;fill:#cccccc;fill-opacity:1;font-family:Play;-inkscape-font-specification:Play" /><flowPara
         id="flowPara3467"
         style="font-size:17.86433411px;font-weight:bold;fill:#cccccc;fill-opacity:1;font-family:Play;-inkscape-font-specification:Play" /><flowPara
         id="flowPara3469"
         style="font-size:17.86433411px;font-weight:bold;fill:#cccccc;fill-opacity:1;font-family:Play;-inkscape-font-specification:Play" /><flowPara
         id="flowPara3471"
         style="font-size:17.86433411px;font-weight:bold;fill:#cccccc;fill-opacity:1;font-family:Play;-inkscape-font-specification:Play" /><flowPara
         id="flowPara3473"
         style="font-size:17.86433411px;font-weight:bold;fill:#cccccc;fill-opacity:1;font-family:Play;-inkscape-font-specification:Play" /><flowPara
         id="flowPara3475"
         style="font-size:17.86433411px;font-weight:bold;fill:#cccccc;fill-opacity:1;font-family:Play;-inkscape-font-specification:Play" /></flowRoot>    <text
       x="764"
       y="926"
       transform="translate(-6040.0068,9044.3369)"
       id="text3561"
       xml:space="preserve"
       style="font-size:18px;font-style:normal;font-variant:normal;font-weight:normal;font-stretch:normal;text-align:center;line-height:125%;letter-spacing:0px;word-spacing:0px;text-anchor:middle;fill:#cccccc;fill-opacity:1;stroke:none;font-family:Arial;-inkscape-font-specification:Arial"><tspan
         x="764"
         y="926"
         id="tspan3563"
         style="fill:#cccccc" /></text>
    <flowRoot
       id="flowRoot4563"
       xml:space="preserve"
       style="font-size:4px;font-style:normal;font-variant:normal;font-weight:bold;font-stretch:normal;line-height:125%;letter-spacing:0px;word-spacing:0px;fill:#cccccc;fill-opacity:1;stroke:none;font-family:Arial;-inkscape-font-specification:Sans Bold"><flowRegion
         id="flowRegion4565"><rect
           width="13.66171"
           height="5.2695165"
           x="373.74536"
           y="-429.5632"
           id="rect4567"
           style="fill:#cccccc" /></flowRegion><flowPara
         id="flowPara4569" /></flowRoot>    <g
       transform="translate(59.8985,25.2598)"
       id="text4589"
       style="font-size:4px;font-style:normal;font-variant:normal;font-weight:bold;font-stretch:normal;line-height:125%;letter-spacing:0px;word-spacing:0px;fill:#cccccc;fill-opacity:1;stroke:none;font-family:Arial;-inkscape-font-specification:Sans Bold" />
    <g
       id="text4609"
       style="font-size:4px;font-style:normal;font-variant:normal;font-weight:bold;font-stretch:normal;line-height:125%;letter-spacing:0px;word-spacing:0px;fill:#cccccc;fill-opacity:1;stroke:none;font-family:Arial;-inkscape-font-specification:Sans Bold" />
    <path
       d="M 40,12.125 C 23.2466,12.125 9.875,25.6461 9.875,42 9.875,58.3539 23.2466,71.875 40,71.875 56.7533,71.875 70.125,58.3539 70.125,42 70.125,25.6461 56.7533,12.125 40,12.125 z M 38,17 38,29 30.1875,29 C 31.86194,22.78796 34.6914,18.30066 38,17 z m 4,0 c 3.30865,1.30066 6.13794,5.78796 7.8125,12 L 42,29 42,17 z M 31.9375,18.25 C 30.20713,21.06448 28.80009,24.74544 27.84375,29 l -9.15625,0 c 3.00121,-5.00848 7.70765,-8.83072 13.25,-10.75 z m 16.125,0 c 5.54251,1.91928 10.24857,5.74152 13.25,10.75 l -9.15625,0 C 51.19984,24.74544 49.79295,21.06448 48.0625,18.25 z M 17.625,31 l 9.78125,0 c -0.57291,3.11489 -0.8831,6.48416 -0.9375,10 l -11.3125,0 c 0.13724,-3.58792 1.00912,-6.97019 2.46875,-10 z m 12.0625,0 8.3125,0 0,10 -9.40625,0 c 0.0624,-3.5868 0.43453,-6.96152 1.09375,-10 z M 42,31 l 8.3125,0 c 0.65928,3.03848 1.03131,6.4132 1.09375,10 L 42,41 42,31 z m 10.59375,0 9.78125,0 c 1.45974,3.02981 2.33149,6.41208 2.46875,10 l -11.3125,0 c -0.0544,-3.51584 -0.36455,-6.88511 -0.9375,-10 z m -37.4375,12 11.3125,0 c 0.0541,3.4934 0.37125,6.83926 0.9375,9.9375 l -9.8125,0 C 16.1526,49.92417 15.29253,46.56262 15.15625,43 z m 13.4375,0 9.40625,0 0,9.9375 -8.3125,0 C 29.03607,49.91453 28.65577,46.5632 28.59375,43 z M 42,43 l 9.40625,0 c -0.062,3.5632 -0.44227,6.91453 -1.09375,9.9375 L 42,52.9375 42,43 z m 11.53125,0 11.3125,0 c -0.13629,3.56262 -0.99624,6.92417 -2.4375,9.9375 l -9.8125,0 C 53.16004,49.83926 53.47719,46.4934 53.53125,43 z m -34.8125,12.0625 9.125,0 c 0.9561,4.22961 2.37141,7.88608 4.09375,10.6875 C 26.41712,63.83833 21.72132,60.0419 18.71875,55.0625 z m 11.46875,0 7.8125,0 L 38,67 C 34.70173,65.7034 31.86393,61.24423 30.1875,55.0625 z m 11.8125,0 7.8125,0 C 48.13595,61.24423 45.29832,65.7034 42,67 l 0,-11.9375 z m 10.15625,0 9.125,0 c -3.0028,4.9794 -7.69821,8.77583 -13.21875,10.6875 1.72242,-2.80142 3.13759,-6.45789 4.09375,-10.6875 z"
       transform="translate(-5600.0068,8712.3369)"
       id="path5048"
       style="font-size:medium;font-style:normal;font-variant:normal;font-weight:normal;font-stretch:normal;text-indent:0;text-align:start;text-decoration:none;line-height:normal;letter-spacing:normal;word-spacing:normal;text-transform:none;direction:ltr;block-progression:tb;writing-mode:lr-tb;text-anchor:start;baseline-shift:baseline;color:#000000;fill:#cccccc;fill-opacity:1;fill-rule:nonzero;stroke:none;stroke-width:70.86614227;marker:none;visibility:visible;display:inline;overflow:visible;enable-background:accumulate;font-family:Sans;-inkscape-font-specification:Sans" />
  </g>
</svg>
